inDegrees=no
num_controls=7
num_derivatives=13
num_iterations=133
num_multipliers=7
num_parameters=0
num_slacks=7
num_states=26
objective=0.464255
objective_accelerations=0.007894
objective_balance=0.001815
objective_effort=0.005810
objective_height=0.443564
objective_ligament=0.005173
solver_duration=1983.748513
status=Solve_Succeeded
success=true
DataType=double
version=3
OpenSimVersion=4.5
endheader
time	/jointset/ground_pelvis/pelvis_tilt/value	/jointset/ground_pelvis/pelvis_tx/value	/jointset/ground_pelvis/pelvis_ty/value	/jointset/hip_l/hip_flexion_l/value	/jointset/hip_l/hip_adduction_l/value	/jointset/hip_l/hip_rotation_l/value	/jointset/back/lumbar_extension/value	/jointset/patellofemoral_l/patellar_flexion_l/value	/jointset/knee_l/knee_flexion_l/value	/jointset/knee_l/knee_adduction_l/value	/jointset/knee_l/knee_rotation_l/value	/jointset/ankle_l/ankle_angle_l/value	/jointset/subtalar_l/subtalar_angle_l/value	/jointset/ground_pelvis/pelvis_tilt/speed	/jointset/ground_pelvis/pelvis_tx/speed	/jointset/ground_pelvis/pelvis_ty/speed	/jointset/hip_l/hip_flexion_l/speed	/jointset/hip_l/hip_adduction_l/speed	/jointset/hip_l/hip_rotation_l/speed	/jointset/back/lumbar_extension/speed	/jointset/patellofemoral_l/patellar_flexion_l/speed	/jointset/knee_l/knee_flexion_l/speed	/jointset/knee_l/knee_adduction_l/speed	/jointset/knee_l/knee_rotation_l/speed	/jointset/ankle_l/ankle_angle_l/speed	/jointset/subtalar_l/subtalar_angle_l/speed	/forceset/tau_hip_flexion_l	/forceset/tau_hip_adduction_l	/forceset/tau_hip_rotation_l	/forceset/tau_knee_flexion_l	/forceset/tau_ankle_angle_l	/forceset/tau_subtalar_angle_l	/forceset/tau_lumbar_extension	lambda_cid13_p0	lambda_cid13_p1	lambda_cid13_p2	lambda_cid13_p3	lambda_cid13_p4	lambda_cid13_p5	lambda_cid14_p0	/jointset/ground_pelvis/pelvis_tilt/accel	/jointset/ground_pelvis/pelvis_tx/accel	/jointset/ground_pelvis/pelvis_ty/accel	/jointset/hip_l/hip_flexion_l/accel	/jointset/hip_l/hip_adduction_l/accel	/jointset/hip_l/hip_rotation_l/accel	/jointset/back/lumbar_extension/accel	/jointset/patellofemoral_l/patellar_flexion_l/accel	/jointset/knee_l/knee_flexion_l/accel	/jointset/knee_l/knee_adduction_l/accel	/jointset/knee_l/knee_rotation_l/accel	/jointset/ankle_l/ankle_angle_l/accel	/jointset/subtalar_l/subtalar_angle_l/accel	gamma_cid13_p0	gamma_cid13_p1	gamma_cid13_p2	gamma_cid13_p3	gamma_cid13_p4	gamma_cid13_p5	gamma_cid14_p0
1.5	-0.1035196317437907	0.1014721738853056	0.8781063989991537	0.3263761216638768	-0.3715119593750627	-0.4568810198054762	-0.1649878292595456	0.2778956579466203	0.2778956579466739	-0.1743996854681804	-0.164285767296165	0.0681564648413554	0.02435817550745148	-0.03082793106506948	0.0268869725487428	0.05565039738159407	-0.3194875091198383	0.1389145336540236	-0.2055201509188324	0.3378759776303479	-0.6040148603631941	-0.6040148603632225	0.0001792023116279379	0.04015788840022773	-0.2602359808675441	0.01224126435643679	-0.02992133608602825	0.03455121116522755	-0.01269628297029788	-0.1244710346312979	-0.004689607386774347	-0.0003853476723770095	0.06600084274444969	-36.65820044564642	-0.02127802582675137	7.214509163304906	3.180049501446896	-544.1148518519674	-60.81845174201664	-42.17053922110016	0.01280357358976537	0.01655130096838087	-0.03865930328742226	-0.1574066924830601	0.1308819233331344	-0.05523582275723153	0.333913827242841	-0.3494332951689131	-0.3494332951689008	-0.002726474524651567	0.04336369639284978	-0.1550573914543472	0.04988434255580522	-9.564574205829314e-09	4.083016499411716e-08	1.431708751702958e-08	1.212366976010232e-08	-1.645054338278778e-08	3.127645429064206e-09	8.656611809741963e-10
1.51	-0.1038273383253301	0.1017418226008778	0.8786608572852842	0.3231740027336335	-0.3701164585764536	-0.4589388936104138	-0.1615927528649813	0.271838967796719	0.2718389677967912	-0.1743979801325017	-0.1638823075875851	0.06554672088009923	0.02448307202282229	-0.03071139300193697	0.02703829082924207	0.05523188358234382	-0.3208882462137754	0.140168833896919	-0.2060276028208025	0.3410926445315626	-0.6072417905018274	-0.6072417905017879	0.0001640478416120656	0.04052732563785039	-0.2616788223209212	0.01273758469462466	-0.02850461717147505	0.03324424511621557	-0.01284932043065949	-0.1240620705940988	-0.002931804174572136	-0.0007009172181755861	0.06458379018229922	-36.09718668757801	0.01128163973067342	7.216471785706987	2.99678768441269	-543.7458549067339	-61.00867691420883	-42.20414326017649	0.01137559154592859	0.01375248222451823	-0.04485647795282824	-0.1242051153493536	0.1201789044228934	-0.04444787499994033	0.3085446088929508	-0.2971163091403798	-0.2971163091302028	-0.0005746040035618212	0.03272472925861264	-0.1337992088777717	0.04943000418854815	-8.674018861129385e-09	4.208272112946672e-08	1.165403778888633e-08	1.188042631770201e-08	-1.424043789599093e-08	5.365096151258665e-09	1.294869698314625e-09
1.52	-0.1041338201924658	0.1020128505773816	0.8792108486214805	0.3199593168529489	-0.3687089198094855	-0.4610010315345867	-0.1581669095039391	0.2657524496582445	0.2657524496583405	-0.1743963592756782	-0.163475355308264	0.06292356816698974	0.02461291656652254	-0.03058298818396581	0.027162824735083	0.05475700739473272	-0.3220008992077271	0.1413221273260197	-0.206372974766094	0.3440293709260677	-0.609980458077655	-0.6099804580775476	0.000162306541057573	0.04085640254793911	-0.2629177312382329	0.01323087002234466	-0.02708789825692018	0.03193727906720976	-0.01300235789103792	-0.1236531065568917	-0.001174000962364559	-0.001016486763963637	0.06316673762014269	-35.53822884577365	0.04448832897503216	7.218003449848881	2.816149492832683	-543.4089191476488	-61.20395522182703	-42.23413998051529	0.01517692455745952	0.01119442603673918	-0.04993178095959434	-0.09978987248598574	0.110680560574162	-0.02281983142152888	0.2779257259009223	-0.2517807826078171	-0.251780782607806	-4.384063239380558e-05	0.03529163088605966	-0.1142708842412453	0.04927734046223763	-7.773398987646993e-09	4.274828416199334e-08	9.20125067710051e-09	1.148479874590932e-08	-1.183722458578042e-08	7.26315008187128e-09	1.64949494526887e-09
1.53	-0.1044388973344146	0.1022850026593436	0.8797558181862918	0.3167348638321113	-0.367290381579182	-0.4630657850979585	-0.1547131023269289	0.2596410141609502	0.2596410141610185	-0.1743947305671279	-0.1630652978256807	0.06028907881362796	0.02474766585206081	-0.03042709637245206	0.02726420578740045	0.05422790115261031	-0.3228438861334181	0.1423657854287239	-0.2065490870292725	0.3466878420867232	-0.6122178842965749	-0.6122178842964493	0.0001641592721128843	0.04114757527440836	-0.2639409791559267	0.01371825599433007	-0.02570589763872495	0.03063140471301457	-0.0131513706122237	-0.1231853796544468	0.0005353719409541744	-0.001317522952471708	0.06177861950084219	-34.99277647639443	0.07356139008281593	7.220407081471741	2.633217159247214	-543.0567356778047	-61.40414957327413	-42.2603950096064	0.0165947715610715	0.00910419018355862	-0.05575227456456826	-0.06968263833883605	0.09824255908412212	-0.01070775724986525	0.2531744527234815	-0.1964103933180828	-0.1964103933153642	0.0004158845308090387	0.02490162773043695	-0.09047760147470851	0.04835227701201791	-6.862085552333234e-09	4.279016702277061e-08	6.971867595194456e-09	1.092726303663722e-08	-9.228834213192888e-09	8.800594921428189e-09	1.924875467437796e-09
1.54	-0.1047422556658284	0.1025580674008995	0.8802952262429367	0.3135033550348711	-0.3658619999430593	-0.4651314399506583	-0.1512340371099972	0.2535098670311088	0.2535098670311553	-0.1743930601203579	-0.1626525543089898	0.05764553180990102	0.02488726560760788	-0.03023922607642478	0.02734535665388236	0.05364470576144751	-0.3234120544882361	0.1432908084900509	-0.2065532326318044	0.3490809789104068	-0.6139227845868556	-0.613922784586712	0.0001706541854221169	0.0413936093690014	-0.2647292613112708	0.01420096402412948	-0.02432389702050496	0.02932553035882346	-0.01330038333342037	-0.1227176527519893	0.002244744844278296	-0.001618559140971769	0.06039050138155598	-34.44891533206732	0.103260901799654	7.222313602916731	2.451756381827389	-542.7298783453867	-61.60831869608671	-42.28278710074692	0.02157262146012182	0.007148388869663402	-0.06074961076767456	-0.04482615831139432	0.08695355229868407	0.01157350070781649	0.2248588585065278	-0.1452755968799959	-0.1452755968799958	0.0008845958183762524	0.02626390451082083	-0.0672777317712604	0.04834175202504801	-5.870804813036471e-09	4.298350772950374e-08	4.558743111276335e-09	1.035946135230139e-08	-6.346801770098067e-09	1.056062393075445e-08	2.235339477547779e-09
